<svg xmlns="http://www.w3.org/2000/svg" viewBox="0 0 800 600" fill="none">
  <rect width="800" height="600" rx="20" fill="#f8fafc" />
  <rect x="50" y="50" width="700" height="500" rx="10" fill="white" stroke="#e2e8f0" stroke-width="2" />
  <rect x="50" y="50" width="700" height="60" rx="10" fill="#f1f5f9" />
  <circle cx="85" cy="80" r="6" fill="#ff5f56" />
  <circle cx="105" cy="80" r="6" fill="#ffbd2e" />
  <circle cx="125" cy="80" r="6" fill="#27c93f" />
  
  <rect x="80" y="140" width="200" height="120" rx="8" fill="#fee2e2" />
  <rect x="100" y="160" width="100" height="12" rx="4" fill="#ef4444" opacity="0.6" />
  <rect x="100" y="185" width="160" height="40" rx="4" fill="#ef4444" opacity="0.2" />
  
  <rect x="300" y="140" width="420" height="120" rx="8" fill="#f1f5f9" />
  <rect x="320" y="165" width="380" height="8" rx="4" fill="#cbd5e1" />
  <rect x="320" y="185" width="380" height="8" rx="4" fill="#cbd5e1" />
  <rect x="320" y="205" width="380" height="8" rx="4" fill="#cbd5e1" />
  <rect x="320" y="225" width="200" height="8" rx="4" fill="#cbd5e1" />
  
  <rect x="80" y="280" width="640" height="240" rx="8" fill="white" stroke="#e2e8f0" />
  <rect x="100" y="300" width="150" height="15" rx="4" fill="#94a3b8" />
  
  <rect x="100" y="340" width="600" height="1" fill="#e2e8f0" />
  <rect x="100" y="380" width="600" height="1" fill="#e2e8f0" />
  <rect x="100" y="420" width="600" height="1" fill="#e2e8f0" />
  <rect x="100" y="460" width="600" height="1" fill="#e2e8f0" />
  
  <rect x="110" y="350" width="80" height="10" rx="4" fill="#cbd5e1" />
  <rect x="250" y="350" width="100" height="10" rx="4" fill="#cbd5e1" />
  <rect x="450" y="350" width="60" height="10" rx="4" fill="#cbd5e1" />
  <rect x="600" y="350" width="70" height="10" rx="4" fill="#22c55e" opacity="0.2" />
  
  <rect x="110" y="390" width="80" height="10" rx="4" fill="#cbd5e1" />
  <rect x="250" y="390" width="100" height="10" rx="4" fill="#cbd5e1" />
  <rect x="450" y="390" width="60" height="10" rx="4" fill="#cbd5e1" />
  <rect x="600" y="390" width="70" height="10" rx="4" fill="#22c55e" opacity="0.2" />
  
  <rect x="110" y="430" width="80" height="10" rx="4" fill="#cbd5e1" />
  <rect x="250" y="430" width="100" height="10" rx="4" fill="#cbd5e1" />
  <rect x="450" y="430" width="60" height="10" rx="4" fill="#cbd5e1" />
  <rect x="600" y="430" width="70" height="10" rx="4" fill="#22c55e" opacity="0.2" />
</svg>
